<svg 
    xmlns="http://www.w3.org/2000/svg" 
    xmlns:xlink="http://www.w3.org/1999/xlink" 
    x="0px" 
    y="0px"
	width="36px" height="36px" 
    viewBox="0 0 64 64" 
    enable-background="new 0 0 64 64"
    xml:space="preserve">
    <path id="icon-github" fill-rule="evenodd" clip-rule="evenodd" fill="#E74B3E" d="M32.063,1.351
        c-17.273,0-31.28,14.003-31.28,31.284c0,13.817,8.961,25.543,21.394,29.679c1.564,0.285,2.135-0.679,2.135-1.507
        c0-0.742-0.029-2.712-0.042-5.322c-8.703,1.894-10.538-4.192-10.538-4.192c-1.422-3.613-3.475-4.574-3.475-4.574
        c-2.84-1.943,0.214-1.906,0.214-1.906c3.142,0.226,4.792,3.229,4.792,3.229c2.792,4.776,7.322,3.399,9.104,2.598
        c0.284-2.023,1.092-3.4,1.987-4.184c-6.949-0.787-14.249-3.473-14.249-15.458c0-3.415,1.22-6.207,3.219-8.394
        c-0.323-0.793-1.396-3.971,0.308-8.276c0,0,2.625-0.842,8.602,3.207c2.495-0.696,5.171-1.043,7.829-1.055
        c2.659,0.011,5.333,0.358,7.832,1.055c5.973-4.048,8.593-3.207,8.593-3.207c1.709,4.306,0.634,7.483,0.311,8.276
        c2.004,2.187,3.216,4.979,3.216,8.394c0,12.014-7.313,14.659-14.278,15.436c1.119,0.964,2.121,2.874,2.121,5.791
        c0,4.184-0.038,7.559-0.038,8.583c0,0.834,0.562,1.811,2.15,1.503c12.417-4.142,21.374-15.861,21.374-29.675
        C63.345,15.354,49.336,1.351,32.063,1.351"/>
</svg>