<svg 
    xmlns="http://www.w3.org/2000/svg" 
    xmlns:xlink="http://www.w3.org/1999/xlink" 
    x="0px" 
    y="0px"
	width="36px" height="36px" 
    viewBox="0 0 64 64" 
    enable-background="new 0 0 64 64"
    xml:space="preserve">
    <path id="icon-linkedin" fill="#E74B3E" d="M8.242,7.948v47.701h47.702V7.948H8.242z M23.129,47.422h-6.73V25.796h6.73V47.422z
        M19.769,22.995c-2.161,0-3.905-1.75-3.905-3.895c0-2.147,1.744-3.901,3.905-3.901c2.15,0,3.893,1.754,3.893,3.901
        C23.662,21.245,21.919,22.995,19.769,22.995z M48.307,47.685h-6.71V37.181c0-2.514-0.062-5.74-3.503-5.74
        c-3.495,0-4.028,2.733-4.028,5.551v10.692h-6.713V26.063h6.441v2.961h0.091c0.897-1.705,3.095-3.499,6.364-3.499
        c6.8,0,8.058,4.479,8.058,10.3V47.685z"/>
</svg>