<?xml version="1.0" encoding="UTF-8"?>
<svg id="Layer_1" data-name="Layer 1" xmlns="http://www.w3.org/2000/svg" viewBox="0 0 512 512">
  <defs>
    <style>
      .cls-1 {
        fill: #e74b3e;
      }
    </style>
  </defs>
  <g id="Ed_Triangle_Logo" data-name="Ed Triangle Logo">
    <path class="cls-1" d="m247.33,73.44c-4.93,7.11-235.22,362.93-240.75,372.64-1.44,2.14.2,5.92,2.44,5.92h252.93c-7.56-13.73-13.88-32.64-18.56-54.43H97.73c-2.64,0-4.68-4.28-3.28-6.62,6.52-10.9,36.72-57.26,43.03-66.97,2.64-4.03,4.88-4.48,7.56-4.48h89.75c0-18.91,2.44-33.13,4.88-47.31h-60.6c-4.48,0-4.88-4.28-2.84-7.31,7.96-11.59,71.59-111.44,74.03-115.67,2.04-3.78,4.68-3.53,6.92,0,2.44,4.03,8.96,12.09,14.48,21.74,8.56-17.51,15.12-29.55,24.08-45.42-10.1-15.67-23.13-35.07-34.58-52.34-3.83-5.42-10-5.67-13.83.25Z"/>
    <path class="cls-1" d="m505.54,445.33c-9.4-16.07-186.47-284.58-197.06-300.45-4.48-6.62-6.92-6.37-11.04,1.19-55.87,103.83-65.87,211.24-26.52,298.56,2.04,4.48,3.68,7.11,9.4,7.11h221.14c2.69.2,5.72-3.58,4.08-6.42Zm-89.75-47.76h-108.31c-2.84,0-3.68-1.64-4.68-4.03-19.8-44.03-16.52-108.36,4.48-160.9,1.64-4.03,3.28-4.03,5.52-.7,5.32,8.06,100.35,153.78,105.07,161.84,1,1.39-.65,3.78-2.09,3.78Z"/>
  </g>
</svg>