<?xml version="1.0" encoding="utf-8"?>
<!-- Generator: Adobe Illustrator 16.0.0, SVG Export Plug-In . SVG Version: 6.00 Build 0)  -->
<!DOCTYPE svg PUBLIC "-//W3C//DTD SVG 1.1//EN" "http://www.w3.org/Graphics/SVG/1.1/DTD/svg11.dtd">
<svg version="1.1" id="Layer_1" xmlns="http://www.w3.org/2000/svg" xmlns:xlink="http://www.w3.org/1999/xlink" x="0px" y="0px"
	 width="612px" height="49.425px" viewBox="0 0 612 49.425" enable-background="new 0 0 612 49.425" xml:space="preserve">
<g>
	<polygon fill="#E74B3E" points="579.902,49.425 0.666,49.425 1.414,48.273 580.65,48.273 	"/>
	<polygon fill="#E74B3E" points="589.549,34.571 10.312,34.571 11.06,33.42 590.297,33.42 	"/>
	<polygon fill="#E74B3E" points="591.961,30.857 12.724,30.857 13.471,29.707 592.708,29.707 	"/>
	<polygon fill="#E74B3E" points="594.372,27.145 15.135,27.145 15.882,25.994 595.119,25.994 	"/>
	<polygon fill="#E74B3E" points="596.783,23.431 17.547,23.431 18.294,22.28 597.531,22.28 	"/>
	<polygon fill="#E74B3E" points="599.195,19.718 19.958,19.718 20.706,18.567 599.942,18.567 	"/>
	<polygon fill="#E74B3E" points="601.606,16.004 22.37,16.004 23.117,14.854 602.354,14.854 	"/>
	<polygon fill="#E74B3E" points="604.018,12.291 24.781,12.291 25.528,11.14 604.766,11.14 	"/>
	<polygon fill="#E74B3E" points="582.314,45.711 3.078,45.711 3.825,44.561 583.063,44.561 	"/>
	<polygon fill="#E74B3E" points="606.43,8.578 27.193,8.578 27.94,7.427 607.177,7.427 	"/>
	<polygon fill="#E74B3E" points="584.727,41.998 5.489,41.998 6.236,40.848 585.473,40.848 	"/>
	<polygon fill="#E74B3E" points="608.841,4.864 29.604,4.864 30.352,3.713 609.588,3.713 	"/>
	<polygon fill="#E74B3E" points="587.138,38.285 7.901,38.285 8.648,37.134 587.885,37.134 	"/>
	<polygon fill="#E74B3E" points="611.252,1.151 32.016,1.151 32.763,0 612,0 	"/>
	<polygon fill="#E74B3E" points="589.549,34.571 10.312,34.571 11.06,33.42 590.297,33.42 	"/>
	<polygon fill="#E74B3E" points="606.43,8.578 27.193,8.578 27.94,7.427 607.177,7.427 	"/>
</g>
</svg>
