<?xml version="1.0" encoding="utf-8"?>
<!-- Generator: Adobe Illustrator 27.5.0, SVG Export Plug-In . SVG Version: 6.00 Build 0)  -->
<svg version="1.1" id="Layer_1" xmlns="http://www.w3.org/2000/svg" xmlns:xlink="http://www.w3.org/1999/xlink" x="0px" y="0px"
	 viewBox="0 0 386 91" style="enable-background:new 0 0 386 91;" xml:space="preserve">
<style type="text/css">
	.st0{fill:#E74B3E;}
	.st1{fill:#231F20;}
</style>
<g id="Edward_Coyle_Horizontal_Logo">
	<g id="Ed_Triangle_Logo">
		<path class="st0" d="M58.22,7.5C57.23,8.93,10.94,80.45,9.83,82.4c-0.29,0.43,0.04,1.19,0.49,1.19c1.97,0,48.14,0,50.84,0
			c-1.52-2.76-2.79-6.56-3.73-10.94c-6.23,0-28.29,0-29.28,0c-0.53,0-0.94-0.86-0.66-1.33c1.31-2.19,7.38-11.51,8.65-13.46
			c0.53-0.81,0.98-0.9,1.52-0.9c1.48,0,14.11,0,18.04,0c0-3.8,0.49-6.66,0.98-9.51c-3.61,0-9.88,0-12.18,0
			c-0.9,0-0.98-0.86-0.57-1.47c1.6-2.33,14.39-22.4,14.88-23.25c0.41-0.76,0.94-0.71,1.39,0c0.49,0.81,1.8,2.43,2.91,4.37
			c1.72-3.52,3.04-5.94,4.84-9.13C65.92,14.82,63.3,10.92,61,7.45C60.23,6.36,58.99,6.31,58.22,7.5z"/>
		<path class="st0" d="M110.12,82.25c-1.89-3.23-37.48-57.2-39.61-60.39c-0.9-1.33-1.39-1.28-2.22,0.24
			c-11.23,20.87-13.24,42.46-5.33,60.01c0.41,0.9,0.74,1.43,1.89,1.43c0,0,41.17,0,44.45,0C109.84,83.58,110.45,82.82,110.12,82.25z
			 M92.08,72.65c-1.64,0-21.77,0-21.77,0c-0.57,0-0.74-0.33-0.94-0.81c-3.98-8.85-3.32-21.78,0.9-32.34
			c0.33-0.81,0.66-0.81,1.11-0.14c1.07,1.62,20.17,30.91,21.12,32.53C92.7,72.17,92.37,72.65,92.08,72.65z"/>
	</g>
	<g>
		<path class="st1" d="M131.99,40.3v3.52h-14.35V23.16h14.08v3.52h-10.07v4.98h8.7v3.26h-8.7v5.38H131.99z"/>
		<path class="st1" d="M133.44,36.29c0-1.46,0.29-2.78,0.87-3.96c0.58-1.18,1.39-2.12,2.42-2.81c1.03-0.69,2.2-1.04,3.52-1.04
			c1.12,0,2.14,0.28,3.04,0.83c0.9,0.55,1.6,1.26,2.11,2.11v-8.85h3.9v16.88c0,0.41,0.07,0.7,0.2,0.87c0.14,0.17,0.37,0.28,0.7,0.32
			v3.17c-0.68,0.14-1.23,0.2-1.66,0.2c-0.7,0-1.28-0.17-1.73-0.52c-0.46-0.35-0.71-0.8-0.77-1.37l-0.06-0.96
			c-0.56,0.95-1.32,1.68-2.28,2.18c-0.96,0.5-1.96,0.76-3.01,0.76c-1.05,0-2.01-0.2-2.9-0.6c-0.88-0.4-1.65-0.96-2.3-1.67
			c-0.65-0.71-1.15-1.54-1.51-2.49C133.62,38.4,133.44,37.38,133.44,36.29z M145.41,38.29v-3.57c-0.19-0.55-0.5-1.05-0.93-1.48
			c-0.43-0.44-0.9-0.78-1.43-1.04c-0.52-0.26-1.05-0.39-1.57-0.39c-0.6,0-1.15,0.12-1.63,0.37c-0.49,0.25-0.91,0.58-1.27,1
			s-0.63,0.9-0.81,1.46c-0.19,0.55-0.28,1.13-0.28,1.74c0,0.61,0.1,1.19,0.31,1.73c0.2,0.54,0.5,1.01,0.89,1.41
			c0.39,0.4,0.84,0.71,1.35,0.94c0.51,0.23,1.07,0.34,1.67,0.34c0.37,0,0.74-0.06,1.12-0.19c0.38-0.12,0.74-0.29,1.08-0.51
			c0.34-0.22,0.64-0.49,0.9-0.8S145.27,38.65,145.41,38.29z"/>
		<path class="st1" d="M171.89,28.72h3.7l-6.37,15.1h-3.26l-2.56-6.49l-2.5,6.49h-3.29l-6.34-15.1h3.67l4.54,11.41l1.77-4.93
			l-2.65-6.46h3.23l1.57,4.61l1.6-4.61h3.23l-2.65,6.46l1.8,4.93L171.89,28.72z"/>
		<path class="st1" d="M175.96,39.37c0-0.98,0.28-1.84,0.83-2.57s1.32-1.31,2.31-1.71c0.99-0.4,2.12-0.6,3.41-0.6
			c0.64,0,1.29,0.05,1.95,0.15c0.66,0.1,1.23,0.25,1.72,0.47v-0.81c0-0.95-0.29-1.69-0.86-2.2c-0.57-0.51-1.42-0.77-2.55-0.77
			c-0.83,0-1.63,0.15-2.39,0.44c-0.76,0.29-1.55,0.72-2.39,1.28l-1.25-2.56c1.01-0.66,2.04-1.15,3.1-1.48
			c1.06-0.33,2.17-0.49,3.33-0.49c2.17,0,3.87,0.54,5.08,1.61c1.21,1.07,1.82,2.6,1.82,4.59v4.79c0,0.4,0.07,0.69,0.22,0.86
			s0.38,0.28,0.71,0.32v3.17c-0.35,0.06-0.67,0.11-0.95,0.15s-0.52,0.06-0.71,0.06c-0.78,0-1.36-0.17-1.76-0.52
			c-0.4-0.35-0.65-0.78-0.74-1.28l-0.09-0.79c-0.66,0.85-1.48,1.51-2.47,1.98c-0.99,0.47-2,0.7-3.03,0.7
			c-1.01,0-1.92-0.21-2.72-0.62s-1.44-0.98-1.89-1.7S175.96,40.27,175.96,39.37z M185.45,40.13c0.21-0.23,0.39-0.45,0.52-0.68
			c0.13-0.23,0.2-0.44,0.2-0.62v-1.5c-0.46-0.19-0.97-0.34-1.51-0.44c-0.54-0.1-1.06-0.16-1.54-0.16c-1.01,0-1.84,0.21-2.49,0.64
			c-0.65,0.43-0.98,0.99-0.98,1.69c0,0.38,0.11,0.74,0.32,1.08c0.21,0.34,0.52,0.62,0.93,0.82c0.41,0.21,0.89,0.31,1.46,0.31
			c0.58,0,1.15-0.11,1.72-0.33C184.64,40.72,185.1,40.45,185.45,40.13z"/>
		<path class="st1" d="M202.79,31.95c-1.18,0-2.24,0.23-3.17,0.68c-0.93,0.46-1.6,1.11-2.01,1.96v9.22h-3.9v-15.1h3.58v3.11
			c0.54-1.05,1.23-1.87,2.07-2.47c0.83-0.6,1.72-0.93,2.65-0.99c0.21,0,0.38,0,0.5,0s0.21,0.01,0.29,0.03V31.95z"/>
		<path class="st1" d="M203.69,36.29c0-1.46,0.29-2.78,0.87-3.96c0.58-1.18,1.39-2.12,2.42-2.81c1.03-0.69,2.2-1.04,3.52-1.04
			c1.12,0,2.14,0.28,3.04,0.83c0.9,0.55,1.61,1.26,2.11,2.11v-8.85h3.9v16.88c0,0.41,0.07,0.7,0.2,0.87s0.37,0.28,0.7,0.32v3.17
			c-0.68,0.14-1.23,0.2-1.66,0.2c-0.7,0-1.28-0.17-1.73-0.52c-0.46-0.35-0.71-0.8-0.77-1.37l-0.06-0.96
			c-0.56,0.95-1.32,1.68-2.28,2.18c-0.96,0.5-1.96,0.76-3.01,0.76s-2.01-0.2-2.9-0.6c-0.88-0.4-1.65-0.96-2.3-1.67
			c-0.65-0.71-1.15-1.54-1.51-2.49C203.87,38.4,203.69,37.38,203.69,36.29z M215.65,38.29v-3.57c-0.19-0.55-0.5-1.05-0.93-1.48
			c-0.43-0.44-0.9-0.78-1.43-1.04c-0.52-0.26-1.05-0.39-1.57-0.39c-0.6,0-1.15,0.12-1.63,0.37c-0.49,0.25-0.91,0.58-1.27,1
			c-0.36,0.42-0.63,0.9-0.82,1.46c-0.18,0.55-0.28,1.13-0.28,1.74c0,0.61,0.1,1.19,0.31,1.73c0.2,0.54,0.5,1.01,0.89,1.41
			c0.39,0.4,0.84,0.71,1.35,0.94c0.51,0.23,1.07,0.34,1.67,0.34c0.37,0,0.74-0.06,1.12-0.19c0.38-0.12,0.74-0.29,1.08-0.51
			c0.34-0.22,0.64-0.49,0.9-0.8C215.32,38.99,215.52,38.65,215.65,38.29z"/>
		<path class="st1" d="M230.75,43.83V23.16h8.76c0.95,0,1.82,0.19,2.62,0.58c0.8,0.39,1.49,0.91,2.08,1.57
			c0.59,0.66,1.05,1.4,1.38,2.21c0.33,0.81,0.5,1.65,0.5,2.5c0,1.16-0.27,2.27-0.81,3.32c-0.54,1.05-1.29,1.9-2.24,2.56
			s-2.08,0.99-3.38,0.99h-4.89v6.93H230.75z M234.77,33.38h4.66c0.48,0,0.92-0.14,1.31-0.41c0.39-0.27,0.7-0.66,0.93-1.18
			c0.23-0.51,0.35-1.1,0.35-1.76c0-0.72-0.13-1.33-0.39-1.83c-0.26-0.5-0.6-0.88-1.02-1.13c-0.42-0.25-0.87-0.38-1.35-0.38h-4.48
			V33.38z"/>
		<path class="st1" d="M246.55,43.83v-4.19h3.2v4.19H246.55z"/>
		<path class="st1" d="M259.3,33.32c0-1.26,0.23-2.5,0.68-3.71s1.12-2.32,1.99-3.32s1.94-1.79,3.2-2.39
			c1.26-0.59,2.7-0.89,4.31-0.89c1.9,0,3.55,0.42,4.93,1.25s2.42,1.92,3.1,3.26l-3.08,2.12c-0.35-0.78-0.81-1.39-1.37-1.85
			c-0.56-0.46-1.16-0.78-1.8-0.96c-0.64-0.18-1.27-0.28-1.89-0.28c-1.01,0-1.89,0.2-2.63,0.61c-0.75,0.41-1.37,0.94-1.88,1.6
			c-0.5,0.66-0.88,1.4-1.12,2.21c-0.24,0.81-0.36,1.63-0.36,2.44c0,0.91,0.15,1.79,0.44,2.63c0.29,0.84,0.7,1.59,1.24,2.24
			c0.53,0.65,1.17,1.16,1.92,1.54c0.75,0.38,1.57,0.57,2.46,0.57c0.64,0,1.29-0.11,1.95-0.32c0.66-0.21,1.27-0.55,1.83-1.02
			c0.56-0.47,1-1.07,1.31-1.8l3.29,1.89c-0.41,1.03-1.07,1.9-1.99,2.62c-0.92,0.72-1.95,1.26-3.1,1.63s-2.28,0.55-3.41,0.55
			c-1.47,0-2.82-0.31-4.04-0.92c-1.22-0.61-2.27-1.43-3.16-2.44c-0.88-1.02-1.57-2.16-2.07-3.43
			C259.55,35.91,259.3,34.62,259.3,33.32z"/>
		<path class="st1" d="M287.06,44.12c-1.24,0-2.36-0.21-3.35-0.62c-0.99-0.41-1.83-0.98-2.52-1.71c-0.69-0.73-1.22-1.56-1.59-2.5
			c-0.37-0.94-0.55-1.93-0.55-2.96c0-1.05,0.18-2.05,0.55-2.99c0.37-0.94,0.9-1.77,1.59-2.5c0.69-0.73,1.53-1.3,2.52-1.71
			s2.1-0.62,3.35-0.62c1.24,0,2.35,0.21,3.33,0.62s1.82,0.98,2.52,1.71c0.7,0.73,1.23,1.56,1.59,2.5c0.36,0.94,0.54,1.94,0.54,2.99
			c0,1.04-0.18,2.02-0.54,2.96c-0.36,0.94-0.88,1.77-1.57,2.5s-1.53,1.3-2.52,1.71C289.42,43.91,288.3,44.12,287.06,44.12z
			 M283.08,36.32c0,0.88,0.17,1.65,0.52,2.33s0.82,1.2,1.43,1.58s1.28,0.57,2.04,0.57c0.74,0,1.41-0.2,2.01-0.59
			c0.6-0.39,1.08-0.92,1.44-1.6c0.36-0.68,0.54-1.45,0.54-2.33c0-0.86-0.18-1.63-0.54-2.31c-0.36-0.68-0.84-1.22-1.44-1.6
			s-1.27-0.57-2.01-0.57c-0.76,0-1.44,0.2-2.04,0.59s-1.08,0.92-1.43,1.6S283.08,35.44,283.08,36.32z"/>
		<path class="st1" d="M297.51,46.79c0.35,0.08,0.67,0.15,0.97,0.2s0.56,0.09,0.77,0.09c0.37,0,0.67-0.09,0.92-0.27
			c0.24-0.18,0.48-0.51,0.71-0.98c0.23-0.47,0.48-1.12,0.73-1.96l-6.02-15.15h4.04l4.1,11.19l3.61-11.19h3.73l-6.4,18.15
			c-0.23,0.67-0.59,1.29-1.06,1.84c-0.48,0.55-1.07,0.98-1.77,1.3c-0.71,0.32-1.5,0.48-2.37,0.48c-0.31,0-0.62-0.02-0.93-0.07
			c-0.31-0.05-0.65-0.13-1.02-0.25V46.79z"/>
		<path class="st1" d="M313.16,22.58h3.9v16.41c0,0.7,0.12,1.17,0.35,1.42c0.23,0.24,0.55,0.37,0.96,0.37
			c0.31,0,0.63-0.04,0.96-0.12s0.62-0.17,0.87-0.29l0.52,2.97c-0.52,0.25-1.14,0.45-1.83,0.58c-0.7,0.14-1.33,0.2-1.89,0.2
			c-1.22,0-2.17-0.33-2.84-0.98c-0.67-0.65-1-1.58-1-2.79V22.58z"/>
		<path class="st1" d="M329.49,44.12c-1.22,0-2.33-0.21-3.32-0.62c-0.99-0.41-1.83-0.98-2.53-1.7c-0.7-0.72-1.24-1.54-1.62-2.47
			c-0.38-0.93-0.57-1.91-0.57-2.95c0-1.44,0.33-2.75,0.98-3.94c0.65-1.19,1.58-2.14,2.79-2.86c1.21-0.72,2.64-1.08,4.29-1.08
			c1.67,0,3.09,0.36,4.28,1.08c1.18,0.72,2.09,1.67,2.72,2.85c0.63,1.18,0.95,2.46,0.95,3.82c0,0.23-0.01,0.47-0.03,0.71
			c-0.02,0.24-0.04,0.44-0.06,0.59h-11.79c0.08,0.76,0.31,1.42,0.68,1.99c0.38,0.57,0.86,1,1.46,1.29c0.59,0.29,1.23,0.44,1.91,0.44
			c0.78,0,1.51-0.19,2.2-0.57c0.69-0.38,1.16-0.88,1.41-1.5l3.35,0.93c-0.37,0.78-0.9,1.47-1.59,2.07c-0.69,0.6-1.5,1.07-2.43,1.41
			C331.64,43.95,330.61,44.12,329.49,44.12z M325.5,35.07h7.97c-0.08-0.76-0.3-1.42-0.65-1.98c-0.36-0.56-0.83-1-1.41-1.31
			c-0.58-0.31-1.23-0.47-1.95-0.47c-0.7,0-1.33,0.16-1.91,0.47c-0.57,0.31-1.04,0.75-1.4,1.31C325.8,33.65,325.58,34.31,325.5,35.07
			z"/>
		<path class="st1" d="M345.35,39.43c0.25,0.17,0.7,0.38,1.34,0.63c0.64,0.24,1.4,0.36,2.27,0.36c0.76,0,1.38-0.13,1.86-0.39
			c0.49-0.26,0.86-0.65,1.12-1.17c0.26-0.52,0.44-1.19,0.52-2.02c0.09-0.83,0.13-1.82,0.13-2.97V23.16h4.02v10.42
			c0,1.54-0.09,2.94-0.26,4.21c-0.17,1.27-0.51,2.37-1.02,3.29c-0.5,0.92-1.27,1.64-2.28,2.14s-2.37,0.75-4.06,0.75
			c-0.93,0-1.77-0.11-2.5-0.32c-0.74-0.21-1.42-0.53-2.04-0.96L345.35,39.43z"/>
		<path class="st1" d="M369.38,31.95c-1.18,0-2.24,0.23-3.17,0.68c-0.93,0.46-1.6,1.11-2.01,1.96v9.22h-3.9v-15.1h3.58v3.11
			c0.54-1.05,1.23-1.87,2.07-2.47c0.83-0.6,1.72-0.93,2.65-0.99c0.21,0,0.38,0,0.5,0s0.21,0.01,0.29,0.03V31.95z"/>
		<path class="st1" d="M370.14,43.83v-4.19h3.2v4.19H370.14z"/>
	</g>
	<g>
		<path class="st1" d="M128.08,71.24c-0.49,0.9-1.18,1.6-2.06,2.1s-1.91,0.75-3.08,0.75h-5.51v-0.7c0-0.18,0.09-0.28,0.27-0.32
			l0.93-0.18v-9.5l-0.93-0.2c-0.18-0.03-0.27-0.14-0.27-0.32v-0.7h5.51c1.19,0,2.22,0.25,3.11,0.76s1.57,1.21,2.05,2.1
			s0.72,1.93,0.72,3.1C128.81,69.31,128.57,70.35,128.08,71.24z M126.05,64.74c-0.73-0.84-1.77-1.26-3.11-1.26h-2.68v9.32h2.68
			c1.33,0,2.37-0.42,3.1-1.25s1.11-1.97,1.11-3.41C127.15,66.71,126.78,65.58,126.05,64.74z"/>
		<path class="st1" d="M134.89,65.79c0.44,0.17,0.81,0.41,1.1,0.72c0.33,0.35,0.58,0.75,0.73,1.18c0.18,0.5,0.27,1.03,0.27,1.6
			c0,0.26-0.02,0.41-0.07,0.47c-0.06,0.08-0.16,0.12-0.3,0.12h-5.59c0,0.53,0.07,1,0.2,1.4c0.11,0.34,0.3,0.67,0.57,0.97
			c0.24,0.28,0.52,0.48,0.83,0.6c0.33,0.13,0.69,0.2,1.07,0.2c0.4,0,0.72-0.04,0.96-0.12c0.23-0.08,0.47-0.17,0.7-0.28
			c0.24-0.12,0.41-0.21,0.5-0.27c0.14-0.09,0.25-0.13,0.33-0.13c0.12,0,0.22,0.05,0.28,0.15l0.42,0.55
			c-0.16,0.2-0.38,0.39-0.67,0.57c-0.33,0.21-0.6,0.35-0.82,0.42c-0.33,0.11-0.63,0.19-0.9,0.23c-0.33,0.06-0.64,0.08-0.92,0.08
			c-0.58,0-1.11-0.1-1.61-0.3c-0.48-0.19-0.9-0.48-1.28-0.88c-0.35-0.37-0.63-0.84-0.83-1.41c-0.2-0.57-0.3-1.21-0.3-1.93
			c0-0.58,0.09-1.12,0.28-1.63c0.19-0.52,0.45-0.96,0.78-1.33c0.34-0.38,0.76-0.67,1.25-0.88c0.49-0.21,1.03-0.32,1.63-0.32
			C133.99,65.54,134.45,65.62,134.89,65.79z M131.86,67.23c-0.41,0.43-0.67,1.01-0.77,1.73h4.58c0-0.34-0.05-0.66-0.15-0.93
			c-0.12-0.34-0.26-0.59-0.4-0.75c-0.19-0.2-0.42-0.36-0.68-0.48c-0.26-0.11-0.56-0.17-0.92-0.17l0.02-0.02
			C132.82,66.62,132.26,66.82,131.86,67.23z"/>
		<path class="st1" d="M146.82,66.4c0,0.17-0.08,0.27-0.25,0.3c-0.03,0-0.08,0.01-0.14,0.03c-0.06,0.02-0.14,0.03-0.23,0.04
			l-0.45,0.1l-2.95,7.24h-1.35l-2.95-7.24c-0.11-0.03-0.26-0.07-0.45-0.1l-0.37-0.07c-0.17-0.03-0.25-0.14-0.25-0.32v-0.71h3.78
			v0.71c0,0.18-0.08,0.28-0.25,0.32c-0.08,0.02-0.19,0.04-0.35,0.07c-0.16,0.02-0.34,0.06-0.57,0.1l1.78,4.53
			c0.09,0.23,0.19,0.63,0.3,1.2c0.16-0.62,0.27-1.02,0.33-1.2l1.8-4.53l-0.95-0.18c-0.17-0.03-0.25-0.14-0.25-0.32v-0.7h3.74V66.4z"
			/>
		<path class="st1" d="M152.77,65.79c0.44,0.17,0.81,0.41,1.1,0.72c0.33,0.35,0.58,0.75,0.73,1.18c0.18,0.5,0.27,1.03,0.27,1.6
			c0,0.26-0.02,0.41-0.07,0.47c-0.06,0.08-0.16,0.12-0.3,0.12h-5.59c0,0.53,0.07,1,0.2,1.4c0.11,0.34,0.3,0.67,0.57,0.97
			c0.24,0.28,0.52,0.48,0.83,0.6c0.33,0.13,0.69,0.2,1.07,0.2c0.4,0,0.72-0.04,0.96-0.12c0.23-0.08,0.47-0.17,0.7-0.28
			c0.24-0.12,0.41-0.21,0.5-0.27c0.14-0.09,0.25-0.13,0.33-0.13c0.12,0,0.22,0.05,0.28,0.15l0.42,0.55
			c-0.16,0.2-0.38,0.39-0.67,0.57c-0.33,0.21-0.6,0.35-0.82,0.42c-0.33,0.11-0.63,0.19-0.9,0.23c-0.33,0.06-0.64,0.08-0.92,0.08
			c-0.58,0-1.11-0.1-1.61-0.3c-0.48-0.19-0.9-0.48-1.28-0.88c-0.35-0.37-0.63-0.84-0.83-1.41c-0.2-0.57-0.3-1.21-0.3-1.93
			c0-0.58,0.09-1.12,0.28-1.63c0.19-0.52,0.45-0.96,0.78-1.33c0.34-0.38,0.76-0.67,1.25-0.88c0.49-0.21,1.03-0.32,1.63-0.32
			C151.88,65.54,152.34,65.62,152.77,65.79z M149.75,67.23c-0.41,0.43-0.67,1.01-0.77,1.73h4.58c0-0.34-0.05-0.66-0.15-0.93
			c-0.12-0.34-0.26-0.59-0.4-0.75c-0.19-0.2-0.42-0.36-0.68-0.48c-0.26-0.11-0.56-0.17-0.92-0.17l0.02-0.02
			C150.71,66.62,150.15,66.82,149.75,67.23z"/>
		<path class="st1" d="M159.73,73.37v0.72h-3.89v-0.72c0-0.18,0.09-0.28,0.27-0.32l0.93-0.18v-9.83c-0.51-0.1-0.82-0.17-0.93-0.2
			c-0.18-0.03-0.27-0.13-0.27-0.3v-0.72h2.7v11.03c0.51,0.1,0.82,0.17,0.93,0.2C159.64,73.09,159.73,73.2,159.73,73.37z"/>
		<path class="st1" d="M166.19,65.84c0.49,0.2,0.92,0.49,1.28,0.87c0.34,0.36,0.61,0.81,0.8,1.36c0.19,0.54,0.28,1.14,0.28,1.8
			s-0.09,1.25-0.28,1.8c-0.19,0.55-0.46,1.01-0.8,1.36c-0.37,0.38-0.79,0.67-1.28,0.87c-0.5,0.2-1.05,0.3-1.66,0.3
			c-0.61,0-1.16-0.1-1.66-0.3c-0.49-0.2-0.92-0.49-1.28-0.87c-0.33-0.34-0.6-0.8-0.82-1.36c-0.18-0.48-0.27-1.08-0.27-1.8
			c0-0.72,0.09-1.32,0.27-1.8c0.21-0.57,0.48-1.02,0.82-1.36c0.37-0.38,0.79-0.67,1.28-0.87c0.5-0.2,1.05-0.3,1.66-0.3
			C165.13,65.54,165.69,65.64,166.19,65.84z M166.39,72.23c0.41-0.58,0.62-1.36,0.62-2.35s-0.21-1.77-0.62-2.35
			c-0.39-0.55-1.01-0.83-1.86-0.83c-0.43,0-0.8,0.07-1.1,0.2c-0.29,0.13-0.54,0.34-0.77,0.63c-0.21,0.29-0.37,0.62-0.47,1
			c-0.11,0.44-0.17,0.9-0.17,1.36c0,0.44,0.06,0.89,0.17,1.33c0.1,0.38,0.25,0.71,0.47,1c0.19,0.25,0.44,0.45,0.77,0.6
			c0.35,0.16,0.72,0.23,1.1,0.23C165.38,73.06,166,72.78,166.39,72.23z"/>
		<path class="st1" d="M174.61,65.5c0.99,0,1.76,0.37,2.33,1.1c0.58,0.78,0.87,1.85,0.87,3.23c0,1.26-0.32,2.3-0.96,3.11
			c-0.68,0.84-1.53,1.26-2.56,1.26s-1.84-0.33-2.43-0.98v2.5l0.45,0.1l0.48,0.1c0.18,0.03,0.27,0.14,0.27,0.32v0.72h-3.89v-0.72
			c0-0.18,0.09-0.28,0.27-0.32l0.93-0.18v-8.85c-0.51-0.1-0.82-0.17-0.93-0.2c-0.18-0.03-0.27-0.14-0.27-0.32v-0.7h2.1
			c0.2,0,0.33,0.1,0.4,0.3l0.12,1h0.02C172.59,65.99,173.53,65.5,174.61,65.5z M173.78,73.06c0.82,0,1.44-0.28,1.86-0.83
			s0.63-1.35,0.63-2.4c0-1.03-0.18-1.81-0.55-2.34c-0.37-0.53-0.9-0.79-1.61-0.79c-0.88,0-1.63,0.43-2.26,1.28v4.08
			C172.34,72.73,172.99,73.06,173.78,73.06z"/>
		<path class="st1" d="M183.83,65.79c0.44,0.17,0.81,0.41,1.1,0.72c0.33,0.35,0.58,0.75,0.73,1.18c0.18,0.5,0.27,1.03,0.27,1.6
			c0,0.26-0.02,0.41-0.07,0.47c-0.06,0.08-0.16,0.12-0.3,0.12h-5.59c0,0.53,0.07,1,0.2,1.4c0.11,0.34,0.3,0.67,0.57,0.97
			c0.24,0.28,0.52,0.48,0.83,0.6c0.33,0.13,0.69,0.2,1.07,0.2c0.4,0,0.72-0.04,0.96-0.12c0.23-0.08,0.47-0.17,0.7-0.28
			c0.24-0.12,0.41-0.21,0.5-0.27c0.14-0.09,0.25-0.13,0.33-0.13c0.12,0,0.22,0.05,0.28,0.15l0.42,0.55
			c-0.16,0.2-0.38,0.39-0.67,0.57c-0.33,0.21-0.6,0.35-0.82,0.42c-0.33,0.11-0.63,0.19-0.9,0.23c-0.33,0.06-0.64,0.08-0.92,0.08
			c-0.58,0-1.12-0.1-1.61-0.3c-0.48-0.19-0.9-0.48-1.28-0.88c-0.36-0.37-0.63-0.84-0.83-1.41c-0.2-0.57-0.3-1.21-0.3-1.93
			c0-0.58,0.09-1.12,0.28-1.63c0.19-0.52,0.45-0.96,0.78-1.33c0.34-0.38,0.76-0.67,1.25-0.88s1.03-0.32,1.63-0.32
			C182.93,65.54,183.39,65.62,183.83,65.79z M180.8,67.23c-0.41,0.43-0.67,1.01-0.77,1.73h4.58c0-0.34-0.05-0.66-0.15-0.93
			c-0.12-0.34-0.25-0.59-0.4-0.75c-0.19-0.2-0.42-0.36-0.68-0.48c-0.26-0.11-0.56-0.17-0.92-0.17l0.02-0.02
			C181.76,66.62,181.2,66.82,180.8,67.23z"/>
		<path class="st1" d="M192.1,65.5c0.43,0,0.82,0.1,1.15,0.3l-0.18,1.12c-0.03,0.14-0.11,0.22-0.22,0.22c-0.08,0-0.21-0.03-0.4-0.08
			c-0.19-0.06-0.42-0.08-0.68-0.08c-0.98,0-1.7,0.59-2.16,1.76v4.16l0.95,0.18c0.17,0.03,0.25,0.14,0.25,0.32v0.7h-3.88v-0.7
			c0-0.18,0.08-0.28,0.25-0.32l0.95-0.18v-6.01c-0.53-0.1-0.85-0.17-0.95-0.2c-0.17-0.03-0.25-0.14-0.25-0.32v-0.7h2.05
			c0.16,0,0.26,0.03,0.32,0.08s0.1,0.16,0.13,0.32l0.1,1.31h0.02C190.15,66.13,191.01,65.5,192.1,65.5z"/>
		<path class="st1" d="M225.88,71.24c-0.49,0.9-1.18,1.6-2.06,2.1s-1.91,0.75-3.08,0.75h-5.51v-0.7c0-0.18,0.09-0.28,0.27-0.32
			l0.93-0.18v-9.5l-0.93-0.2c-0.18-0.03-0.27-0.14-0.27-0.32v-0.7h5.51c1.19,0,2.22,0.25,3.11,0.76s1.57,1.21,2.05,2.1
			s0.72,1.93,0.72,3.1C226.61,69.31,226.36,70.35,225.88,71.24z M223.85,64.74c-0.73-0.84-1.77-1.26-3.11-1.26h-2.68v9.32h2.68
			c1.33,0,2.37-0.42,3.1-1.25c0.74-0.83,1.11-1.97,1.11-3.41C224.94,66.71,224.58,65.58,223.85,64.74z"/>
		<path class="st1" d="M232.68,65.79c0.44,0.17,0.81,0.41,1.1,0.72c0.33,0.35,0.58,0.75,0.73,1.18c0.18,0.5,0.27,1.03,0.27,1.6
			c0,0.26-0.02,0.41-0.07,0.47c-0.06,0.08-0.16,0.12-0.3,0.12h-5.59c0,0.53,0.07,1,0.2,1.4c0.11,0.34,0.3,0.67,0.57,0.97
			c0.24,0.28,0.52,0.48,0.83,0.6c0.33,0.13,0.69,0.2,1.07,0.2c0.4,0,0.72-0.04,0.96-0.12c0.23-0.08,0.47-0.17,0.7-0.28
			c0.24-0.12,0.41-0.21,0.5-0.27c0.14-0.09,0.25-0.13,0.33-0.13c0.12,0,0.22,0.05,0.28,0.15l0.42,0.55
			c-0.16,0.2-0.38,0.39-0.67,0.57c-0.33,0.21-0.6,0.35-0.82,0.42c-0.33,0.11-0.63,0.19-0.9,0.23c-0.33,0.06-0.64,0.08-0.92,0.08
			c-0.58,0-1.12-0.1-1.61-0.3c-0.48-0.19-0.9-0.48-1.28-0.88c-0.36-0.37-0.63-0.84-0.83-1.41c-0.2-0.57-0.3-1.21-0.3-1.93
			c0-0.58,0.09-1.12,0.28-1.63c0.19-0.52,0.45-0.96,0.78-1.33c0.34-0.38,0.76-0.67,1.25-0.88s1.03-0.32,1.63-0.32
			C231.79,65.54,232.25,65.62,232.68,65.79z M229.65,67.23c-0.41,0.43-0.67,1.01-0.77,1.73h4.58c0-0.34-0.05-0.66-0.15-0.93
			c-0.12-0.34-0.25-0.59-0.4-0.75c-0.19-0.2-0.42-0.36-0.68-0.48c-0.26-0.11-0.56-0.17-0.92-0.17l0.02-0.02
			C230.61,66.62,230.05,66.82,229.65,67.23z"/>
		<path class="st1" d="M241.25,65.99v2.16h-0.65c-0.16,0-0.25-0.08-0.28-0.23l-0.1-1.1c-0.52-0.12-0.95-0.18-1.3-0.18h-0.02
			c-0.46,0-0.84,0.12-1.15,0.37c-0.3,0.23-0.45,0.49-0.45,0.77c0,0.29,0.07,0.5,0.2,0.63c0.22,0.26,0.54,0.45,0.96,0.58l0.5,0.15
			c0.09,0.02,0.27,0.08,0.53,0.17l0.8,0.3c0.22,0.08,0.46,0.22,0.7,0.43c0.46,0.36,0.68,0.84,0.68,1.46c0,0.81-0.27,1.45-0.82,1.93
			c-0.59,0.52-1.33,0.78-2.23,0.78c-0.92,0-1.83-0.15-2.73-0.45v-2.2h0.6c0.13,0,0.22,0.07,0.25,0.2l0.1,1.07
			c0.44,0.22,1.01,0.33,1.71,0.33c0.53,0,0.96-0.14,1.3-0.42c0.29-0.25,0.43-0.54,0.43-0.85c0-0.32-0.07-0.55-0.2-0.7
			c-0.16-0.18-0.32-0.31-0.5-0.4c-0.24-0.12-0.48-0.21-0.7-0.27c-0.82-0.27-1.34-0.44-1.55-0.53c-0.27-0.12-0.52-0.28-0.75-0.47
			c-0.47-0.39-0.7-0.91-0.7-1.56c0-0.67,0.27-1.23,0.8-1.7c0.55-0.49,1.34-0.73,2.35-0.73C239.63,65.54,240.36,65.69,241.25,65.99z"
			/>
		<path class="st1" d="M246.36,73.17c0.04,0.06,0.07,0.13,0.07,0.21v0.72h-3.88v-0.72c0-0.08,0.02-0.15,0.07-0.21
			c0.04-0.06,0.11-0.1,0.18-0.11l0.96-0.18v-6.01l-0.96-0.18c-0.08-0.01-0.14-0.05-0.18-0.11c-0.04-0.06-0.07-0.13-0.07-0.21v-0.7
			h2.68v7.21l0.95,0.18C246.25,73.07,246.32,73.11,246.36,73.17z M243.53,63.42c-0.06-0.11-0.08-0.24-0.08-0.4
			c0-0.17,0.03-0.3,0.08-0.42c0.08-0.16,0.16-0.27,0.23-0.35c0.09-0.09,0.2-0.17,0.33-0.23c0.11-0.06,0.24-0.08,0.4-0.08
			s0.29,0.03,0.4,0.08c0.13,0.07,0.24,0.14,0.33,0.23c0.08,0.08,0.16,0.19,0.23,0.35c0.07,0.13,0.1,0.27,0.1,0.42
			c0,0.13-0.03,0.27-0.1,0.4c-0.07,0.13-0.14,0.24-0.23,0.33s-0.2,0.17-0.33,0.23c-0.11,0.06-0.24,0.08-0.4,0.08
			s-0.29-0.03-0.4-0.08c-0.13-0.07-0.24-0.14-0.33-0.23S243.6,63.56,243.53,63.42z"/>
		<path class="st1" d="M251.67,65.67c0.32,0.09,0.61,0.21,0.87,0.37h2.3v0.55c0,0.18-0.12,0.29-0.35,0.35l-0.95,0.13
			c0.18,0.32,0.27,0.72,0.27,1.2c0,0.43-0.08,0.8-0.23,1.12c-0.18,0.35-0.39,0.64-0.65,0.85c-0.31,0.25-0.64,0.44-1,0.57
			c-0.35,0.12-0.78,0.18-1.26,0.18c-0.4,0-0.77-0.05-1.11-0.15c-0.16,0.09-0.29,0.21-0.4,0.37c-0.09,0.12-0.13,0.24-0.13,0.37
			c0,0.21,0.08,0.36,0.23,0.45c0.19,0.11,0.4,0.18,0.65,0.22c0.36,0.04,0.66,0.07,0.92,0.07c0.22,0,0.57,0.02,1.03,0.07
			c0.09,0.01,0.24,0.02,0.46,0.04c0.22,0.02,0.41,0.04,0.57,0.08c0.35,0.07,0.66,0.17,0.92,0.3c0.24,0.12,0.46,0.32,0.65,0.58
			c0.16,0.22,0.23,0.53,0.23,0.93c0,0.39-0.09,0.74-0.27,1.07c-0.17,0.31-0.43,0.61-0.8,0.9c-0.32,0.25-0.73,0.47-1.23,0.63
			c-0.47,0.16-1.02,0.23-1.66,0.23c-0.67,0-1.21-0.06-1.63-0.18c-0.47-0.13-0.85-0.3-1.15-0.5c-0.3-0.2-0.53-0.44-0.68-0.72
			s-0.23-0.55-0.23-0.83c0-0.41,0.13-0.77,0.4-1.07c0.27-0.3,0.63-0.53,1.1-0.7c-0.23-0.1-0.42-0.25-0.57-0.45
			c-0.14-0.2-0.22-0.45-0.22-0.75c0-0.07,0.02-0.19,0.07-0.37c0.03-0.13,0.1-0.27,0.2-0.4c0.09-0.12,0.21-0.24,0.35-0.37
			c0.04-0.04,0.2-0.14,0.47-0.3c-0.42-0.23-0.75-0.54-0.98-0.93c-0.23-0.39-0.35-0.84-0.35-1.35c0-0.43,0.08-0.8,0.23-1.12
			c0.17-0.34,0.39-0.63,0.67-0.85c0.28-0.23,0.62-0.42,1.03-0.55c0.37-0.12,0.79-0.18,1.28-0.18l-0.03,0.03
			C251.03,65.55,251.37,65.59,251.67,65.67z M253.13,74.09c-0.11-0.13-0.27-0.23-0.48-0.3s-0.44-0.12-0.68-0.15
			c-0.35-0.04-0.63-0.07-0.83-0.08l-0.88-0.03c-0.06,0-0.34-0.03-0.85-0.1c-0.32,0.16-0.58,0.34-0.78,0.55
			c-0.2,0.22-0.3,0.48-0.3,0.78c0,0.19,0.05,0.37,0.15,0.53c0.1,0.16,0.25,0.29,0.45,0.42c0.21,0.12,0.46,0.22,0.75,0.28
			c0.3,0.07,0.65,0.1,1.06,0.1c0.34,0,0.7-0.04,1.07-0.12c0.29-0.06,0.55-0.16,0.8-0.32c0.22-0.13,0.39-0.29,0.5-0.47
			c0.12-0.19,0.18-0.39,0.18-0.6h0.02C253.3,74.38,253.24,74.21,253.13,74.09z M251.47,69.9c0.21-0.08,0.41-0.19,0.58-0.35
			c0.16-0.14,0.27-0.33,0.35-0.55c0.08-0.23,0.12-0.46,0.12-0.68c0-0.52-0.16-0.93-0.48-1.23c-0.31-0.3-0.77-0.45-1.37-0.45
			c-0.59,0-1.04,0.15-1.36,0.45c-0.31,0.3-0.47,0.71-0.47,1.23c0,0.24,0.04,0.47,0.13,0.68c0.1,0.23,0.22,0.41,0.35,0.53
			c0.18,0.16,0.37,0.27,0.58,0.35c0.22,0.08,0.48,0.12,0.77,0.12v0.03C250.96,70.03,251.22,69.99,251.47,69.9z"/>
		<path class="st1" d="M261.24,65.52c0.91,0,1.61,0.29,2.1,0.88c0.48,0.58,0.72,1.35,0.72,2.31v4.14c0.53,0.1,0.85,0.17,0.95,0.2
			c0.18,0.03,0.27,0.14,0.27,0.32v0.72h-2.7v-5.36c0-1.35-0.59-2.03-1.76-2.03c-0.83,0-1.6,0.39-2.3,1.18v4.99
			c0.04,0,0.37,0.07,0.96,0.2c0.17,0.03,0.25,0.14,0.25,0.32v0.7h-3.88v-0.7c0-0.18,0.08-0.28,0.23-0.32l0.96-0.18v-6.01
			c-0.55-0.1-0.88-0.17-0.96-0.2c-0.16-0.03-0.23-0.14-0.23-0.32v-0.7h2.06c0.2,0,0.33,0.1,0.4,0.3l0.13,0.92v-0.02
			C259.27,65.97,260.21,65.52,261.24,65.52z"/>
		<path class="st1" d="M271.34,65.79c0.44,0.17,0.81,0.41,1.1,0.72c0.33,0.35,0.58,0.75,0.73,1.18c0.18,0.5,0.27,1.03,0.27,1.6
			c0,0.26-0.02,0.41-0.07,0.47c-0.06,0.08-0.16,0.12-0.3,0.12h-5.59c0,0.53,0.07,1,0.2,1.4c0.11,0.34,0.3,0.67,0.57,0.97
			c0.24,0.28,0.52,0.48,0.83,0.6c0.33,0.13,0.69,0.2,1.07,0.2c0.4,0,0.72-0.04,0.96-0.12c0.23-0.08,0.47-0.17,0.7-0.28
			c0.24-0.12,0.41-0.21,0.5-0.27c0.14-0.09,0.25-0.13,0.33-0.13c0.12,0,0.22,0.05,0.28,0.15l0.42,0.55
			c-0.16,0.2-0.38,0.39-0.67,0.57c-0.33,0.21-0.6,0.35-0.82,0.42c-0.33,0.11-0.63,0.19-0.9,0.23c-0.33,0.06-0.64,0.08-0.92,0.08
			c-0.58,0-1.12-0.1-1.61-0.3c-0.48-0.19-0.9-0.48-1.28-0.88c-0.36-0.37-0.63-0.84-0.83-1.41c-0.2-0.57-0.3-1.21-0.3-1.93
			c0-0.58,0.09-1.12,0.28-1.63c0.19-0.52,0.45-0.96,0.78-1.33c0.34-0.38,0.76-0.67,1.25-0.88s1.03-0.32,1.63-0.32
			C270.44,65.54,270.91,65.62,271.34,65.79z M268.31,67.23c-0.41,0.43-0.67,1.01-0.77,1.73h4.58c0-0.34-0.05-0.66-0.15-0.93
			c-0.12-0.34-0.25-0.59-0.4-0.75c-0.19-0.2-0.42-0.36-0.68-0.48c-0.26-0.11-0.56-0.17-0.92-0.17l0.02-0.02
			C269.27,66.62,268.71,66.82,268.31,67.23z"/>
		<path class="st1" d="M279.61,65.5c0.43,0,0.82,0.1,1.15,0.3l-0.18,1.12c-0.03,0.14-0.11,0.22-0.22,0.22
			c-0.08,0-0.21-0.03-0.4-0.08c-0.19-0.06-0.42-0.08-0.68-0.08c-0.98,0-1.7,0.59-2.16,1.76v4.16l0.95,0.18
			c0.17,0.03,0.25,0.14,0.25,0.32v0.7h-3.88v-0.7c0-0.18,0.08-0.28,0.25-0.32l0.95-0.18v-6.01c-0.53-0.1-0.85-0.17-0.95-0.2
			c-0.17-0.03-0.25-0.14-0.25-0.32v-0.7h2.05c0.16,0,0.26,0.03,0.32,0.08s0.1,0.16,0.13,0.32l0.1,1.31h0.02
			C277.67,66.13,278.52,65.5,279.61,65.5z"/>
		<path class="st1" d="M314.1,73.42v0.67h-3.43v-0.67c0-0.14,0.08-0.23,0.23-0.27l0.68-0.2l-0.93-2.4h-5.14l-0.93,2.4l0.68,0.2
			c0.14,0.03,0.22,0.12,0.22,0.27v0.67h-3.41v-0.67c0-0.14,0.07-0.23,0.22-0.27l0.67-0.2l4.33-10.78h1.63l4.31,10.78l0.67,0.2
			C314.03,73.19,314.1,73.28,314.1,73.42z M308.45,64.82c-0.09-0.22-0.21-0.6-0.37-1.13c-0.13,0.51-0.25,0.89-0.33,1.13l-1.78,4.58
			h4.24L308.45,64.82z"/>
		<path class="st1" d="M320.46,65.52c0.91,0,1.61,0.29,2.1,0.88c0.48,0.58,0.72,1.35,0.72,2.31v4.14c0.53,0.1,0.85,0.17,0.95,0.2
			c0.18,0.03,0.27,0.14,0.27,0.32v0.72h-2.7v-5.36c0-1.35-0.59-2.03-1.76-2.03c-0.83,0-1.6,0.39-2.3,1.18v4.99
			c0.04,0,0.37,0.07,0.96,0.2c0.17,0.03,0.25,0.14,0.25,0.32v0.7h-3.88v-0.7c0-0.18,0.08-0.28,0.23-0.32l0.96-0.18v-6.01
			c-0.55-0.1-0.88-0.17-0.96-0.2c-0.16-0.03-0.23-0.14-0.23-0.32v-0.7h2.06c0.2,0,0.33,0.1,0.4,0.3l0.13,0.92v-0.02
			C318.5,65.97,319.43,65.52,320.46,65.52z"/>
		<path class="st1" d="M329.23,73.17c0.04,0.06,0.07,0.13,0.07,0.21v0.72h-3.88v-0.72c0-0.08,0.02-0.15,0.07-0.21
			c0.04-0.06,0.11-0.1,0.18-0.11l0.96-0.18v-6.01l-0.96-0.18c-0.08-0.01-0.14-0.05-0.18-0.11c-0.04-0.06-0.07-0.13-0.07-0.21v-0.7
			h2.68v7.21l0.95,0.18C329.12,73.07,329.19,73.11,329.23,73.17z M326.4,63.42c-0.06-0.11-0.08-0.24-0.08-0.4
			c0-0.17,0.03-0.3,0.08-0.42c0.08-0.16,0.16-0.27,0.23-0.35c0.09-0.09,0.2-0.17,0.33-0.23c0.11-0.06,0.24-0.08,0.4-0.08
			s0.29,0.03,0.4,0.08c0.13,0.07,0.24,0.14,0.33,0.23c0.08,0.08,0.16,0.19,0.23,0.35c0.07,0.13,0.1,0.27,0.1,0.42
			c0,0.13-0.03,0.27-0.1,0.4c-0.07,0.13-0.14,0.24-0.23,0.33s-0.2,0.17-0.33,0.23c-0.11,0.06-0.24,0.08-0.4,0.08
			s-0.29-0.03-0.4-0.08c-0.13-0.07-0.24-0.14-0.33-0.23S326.47,63.56,326.4,63.42z"/>
		<path class="st1" d="M335.24,65.54c0.58,0,1.04,0.16,1.4,0.48c0.34,0.31,0.6,0.74,0.77,1.28c0.24-0.6,0.61-1.04,1.1-1.33
			c0.51-0.29,1-0.43,1.46-0.43c0.49,0,0.92,0.07,1.3,0.22c0.35,0.13,0.65,0.34,0.9,0.62c0.49,0.56,0.73,1.34,0.73,2.36v4.16
			c0.55,0.1,0.88,0.17,0.96,0.2c0.17,0.03,0.25,0.13,0.25,0.3v0.73h-2.68v-5.38c0-0.68-0.14-1.18-0.43-1.5
			c-0.31-0.34-0.73-0.52-1.26-0.52c-0.51,0-0.93,0.17-1.26,0.5c-0.37,0.37-0.55,0.87-0.55,1.5v4.16c0.04,0.01,0.14,0.03,0.28,0.07
			c0.14,0.03,0.37,0.08,0.67,0.13c0.17,0.03,0.25,0.13,0.25,0.3v0.72h-2.68v-5.38c0-1.33-0.53-2-1.6-2c-0.69,0-1.31,0.37-1.88,1.1
			v5.06l0.45,0.08l0.5,0.1c0.17,0.03,0.25,0.14,0.25,0.32v0.7h-3.88v-0.7c0-0.18,0.08-0.28,0.23-0.32l0.96-0.18v-6.01
			c-0.55-0.1-0.88-0.17-0.96-0.2c-0.16-0.03-0.23-0.14-0.23-0.32v-0.7h2.06c0.2,0,0.33,0.1,0.4,0.3l0.12,0.87v0.02
			C333.57,65.97,334.36,65.54,335.24,65.54z"/>
		<path class="st1" d="M352.56,73.13c0.04,0.06,0.07,0.13,0.07,0.21v0.72h-1.73c-0.1,0-0.22-0.02-0.35-0.07
			c-0.08-0.02-0.13-0.11-0.17-0.27l-0.17-0.8l-0.67,0.55c-0.19,0.16-0.41,0.29-0.67,0.4c-0.24,0.11-0.49,0.19-0.73,0.25
			c-0.22,0.06-0.52,0.08-0.9,0.08c-0.31,0-0.61-0.05-0.9-0.15c-0.34-0.12-0.59-0.25-0.75-0.4c-0.2-0.18-0.37-0.41-0.5-0.7
			c-0.12-0.25-0.18-0.59-0.18-1c0-0.36,0.09-0.68,0.27-0.96c0.2-0.32,0.5-0.6,0.9-0.83c0.44-0.26,0.98-0.46,1.6-0.6
			c0.64-0.14,1.45-0.22,2.43-0.22V68.7c0-0.65-0.14-1.15-0.43-1.5c-0.29-0.34-0.7-0.52-1.25-0.52c-0.35,0-0.66,0.05-0.92,0.15
			c-0.29,0.11-0.5,0.21-0.63,0.3c-0.07,0.04-0.14,0.09-0.22,0.14c-0.08,0.05-0.17,0.1-0.26,0.16c-0.12,0.09-0.25,0.13-0.38,0.13
			c-0.12,0-0.21-0.02-0.27-0.07c-0.07-0.06-0.12-0.12-0.17-0.2l-0.27-0.47c0.43-0.42,0.93-0.75,1.5-1c0.51-0.22,1.11-0.33,1.8-0.33
			c0.5,0,0.92,0.08,1.26,0.23c0.38,0.17,0.68,0.38,0.92,0.63c0.24,0.26,0.43,0.59,0.57,1c0.12,0.37,0.18,0.8,0.18,1.3v4.21
			c0.53,0.11,0.81,0.17,0.83,0.18v-0.03C352.45,73.04,352.52,73.07,352.56,73.13z M348.35,70.41c-0.42,0.08-0.81,0.19-1.17,0.35
			c-0.31,0.14-0.53,0.31-0.67,0.5c-0.13,0.2-0.2,0.41-0.2,0.63c0,0.18,0.04,0.37,0.12,0.57c0.07,0.17,0.17,0.3,0.3,0.4
			c0.13,0.1,0.28,0.17,0.43,0.22c0.19,0.06,0.37,0.08,0.55,0.08c0.22,0,0.45-0.03,0.7-0.08c0.22-0.06,0.43-0.13,0.62-0.22
			c0.17-0.08,0.35-0.2,0.55-0.37c0.11-0.09,0.28-0.24,0.5-0.47V70.3C349.36,70.3,348.78,70.33,348.35,70.41z"/>
		<path class="st1" d="M355.04,73.66c-0.36-0.35-0.53-0.89-0.53-1.6V66.9h-1.02c-0.1,0-0.18-0.02-0.23-0.07
			c-0.06-0.04-0.08-0.13-0.08-0.25V66l1.38-0.18l0.33-2.61c0-0.09,0.03-0.16,0.1-0.2c0.06-0.04,0.13-0.07,0.23-0.07h0.75v2.9h2.41
			v1.08h-2.41v5.06c0,0.37,0.08,0.63,0.25,0.8c0.17,0.17,0.39,0.25,0.68,0.25c0.12,0,0.26-0.02,0.42-0.07
			c0.1-0.03,0.2-0.08,0.3-0.13c0.03-0.02,0.07-0.04,0.1-0.07c0.03-0.02,0.07-0.04,0.1-0.07c0.09-0.04,0.14-0.07,0.17-0.07
			c0.08,0,0.14,0.04,0.2,0.13l0.43,0.7c-0.3,0.26-0.61,0.44-0.93,0.57c-0.37,0.13-0.74,0.2-1.11,0.2
			C355.93,74.22,355.42,74.03,355.04,73.66z"/>
		<path class="st1" d="M364.89,65.84c0.49,0.2,0.92,0.49,1.28,0.87c0.34,0.36,0.61,0.81,0.8,1.36c0.19,0.54,0.28,1.14,0.28,1.8
			s-0.09,1.25-0.28,1.8c-0.19,0.55-0.46,1.01-0.8,1.36c-0.37,0.38-0.79,0.67-1.28,0.87c-0.5,0.2-1.05,0.3-1.66,0.3
			c-0.61,0-1.17-0.1-1.66-0.3c-0.49-0.2-0.92-0.49-1.28-0.87c-0.33-0.34-0.6-0.8-0.81-1.36c-0.18-0.48-0.27-1.08-0.27-1.8
			c0-0.72,0.09-1.32,0.27-1.8c0.21-0.57,0.48-1.02,0.81-1.36c0.37-0.38,0.79-0.67,1.28-0.87c0.5-0.2,1.05-0.3,1.66-0.3
			C363.84,65.54,364.39,65.64,364.89,65.84z M365.09,72.23c0.41-0.58,0.62-1.36,0.62-2.35s-0.21-1.77-0.62-2.35
			c-0.39-0.55-1.01-0.83-1.86-0.83c-0.43,0-0.8,0.07-1.1,0.2c-0.29,0.13-0.54,0.34-0.77,0.63c-0.21,0.29-0.37,0.62-0.47,1
			c-0.11,0.44-0.17,0.9-0.17,1.36c0,0.44,0.05,0.89,0.17,1.33c0.1,0.38,0.25,0.71,0.47,1c0.19,0.25,0.44,0.45,0.77,0.6
			c0.35,0.16,0.72,0.23,1.1,0.23C364.08,73.06,364.7,72.78,365.09,72.23z"/>
		<path class="st1" d="M373.36,65.5c0.43,0,0.82,0.1,1.15,0.3l-0.18,1.12c-0.03,0.14-0.11,0.22-0.22,0.22
			c-0.08,0-0.21-0.03-0.4-0.08c-0.19-0.06-0.42-0.08-0.68-0.08c-0.98,0-1.7,0.59-2.16,1.76v4.16l0.95,0.18
			c0.17,0.03,0.25,0.14,0.25,0.32v0.7h-3.88v-0.7c0-0.18,0.08-0.28,0.25-0.32l0.95-0.18v-6.01c-0.53-0.1-0.85-0.17-0.95-0.2
			c-0.17-0.03-0.25-0.14-0.25-0.32v-0.7h2.05c0.16,0,0.26,0.03,0.32,0.08s0.1,0.16,0.13,0.32l0.1,1.31h0.02
			C371.42,66.13,372.27,65.5,373.36,65.5z"/>
	</g>
	<path d="M203.74,65.52c0.05-0.07,0.16-0.07,0.2,0l1.82,2.74l1.81,2.73c0.05,0.07-0.01,0.16-0.11,0.16h-3.62h-3.63
		c-0.1,0-0.16-0.08-0.11-0.16l1.82-2.73L203.74,65.52z"/>
	<path d="M290.99,65.52c0.05-0.07,0.15-0.07,0.2,0l1.82,2.74l1.81,2.73c0.05,0.07-0.01,0.16-0.11,0.16h-3.61h-3.63
		c-0.1,0-0.15-0.08-0.11-0.16l1.82-2.73L290.99,65.52z"/>
	<rect x="117.2" y="52.22" class="st0" width="257.51" height="1.37"/>
</g>
<g>
</g>
<g>
</g>
<g>
</g>
<g>
</g>
<g>
</g>
<g>
</g>
<g>
</g>
<g>
</g>
<g>
</g>
<g>
</g>
<g>
</g>
<g>
</g>
<g>
</g>
<g>
</g>
<g>
</g>
</svg>
