<?xml version="1.0" encoding="utf-8"?>
<!-- Generator: Adobe Illustrator 27.5.0, SVG Export Plug-In . SVG Version: 6.00 Build 0)  -->
<svg version="1.1" id="Layer_1" xmlns="http://www.w3.org/2000/svg" xmlns:xlink="http://www.w3.org/1999/xlink" x="0px" y="0px"
	 viewBox="0 0 128 128" style="enable-background:new 0 0 128 128;" xml:space="preserve">
<style type="text/css">
	.st0{fill:#E74B3E;}
</style>
<g id="Ed_Triangle_Logo">
	<path class="st0" d="M61.84,18.11c-1.22,1.76-58.34,90.01-59.71,92.42c-0.36,0.53,0.05,1.47,0.6,1.47c2.43,0,59.4,0,62.73,0
		c-1.88-3.41-3.44-8.09-4.6-13.5c-7.69,0-34.91,0-36.13,0c-0.65,0-1.16-1.06-0.81-1.64c1.62-2.7,9.11-14.2,10.67-16.61
		c0.65-1,1.21-1.11,1.88-1.11c1.83,0,17.41,0,22.26,0c0-4.69,0.6-8.22,1.21-11.73c-4.45,0-12.19,0-15.03,0
		c-1.11,0-1.21-1.06-0.7-1.81c1.97-2.88,17.76-27.64,18.36-28.69c0.51-0.94,1.16-0.88,1.72,0c0.6,1,2.22,3,3.59,5.39
		c2.12-4.34,3.75-7.33,5.97-11.27c-2.5-3.89-5.74-8.7-8.58-12.98C64.32,16.7,62.79,16.64,61.84,18.11z"/>
	<path class="st0" d="M125.88,110.35c-2.33-3.99-46.25-70.58-48.88-74.52c-1.11-1.64-1.72-1.58-2.74,0.3
		c-13.86,25.75-16.34,52.39-6.58,74.05c0.51,1.11,0.91,1.76,2.33,1.76c0,0,50.8,0,54.85,0
		C125.54,111.99,126.29,111.05,125.88,110.35z M103.62,98.5c-2.02,0-26.86,0-26.86,0c-0.7,0-0.91-0.41-1.16-1
		c-4.91-10.92-4.1-26.87,1.11-39.91c0.41-1,0.81-1,1.37-0.17c1.32,2,24.89,38.14,26.06,40.14C104.39,97.91,103.98,98.5,103.62,98.5z
		"/>
</g>
<g>
</g>
<g>
</g>
<g>
</g>
<g>
</g>
<g>
</g>
<g>
</g>
<g>
</g>
<g>
</g>
<g>
</g>
<g>
</g>
<g>
</g>
<g>
</g>
<g>
</g>
<g>
</g>
<g>
</g>
</svg>
