<?xml version="1.0" encoding="utf-8"?>
<!-- Generator: Adobe Illustrator 16.0.0, SVG Export Plug-In . SVG Version: 6.00 Build 0)  -->
<!DOCTYPE svg PUBLIC "-//W3C//DTD SVG 1.1//EN" "http://www.w3.org/Graphics/SVG/1.1/DTD/svg11.dtd">
<svg version="1.1" id="Layer_1" xmlns="http://www.w3.org/2000/svg" xmlns:xlink="http://www.w3.org/1999/xlink" x="0px" y="0px"
	 width="64px" height="64px" viewBox="0 0 64 64" enable-background="new 0 0 64 64" xml:space="preserve">
<g id="icon-mail">
	<path fill="#E74B3E" d="M8.495,11.351h47.194c1.173,0,2.259,0.343,3.194,0.902l-16.88,16.882l-1.728,1.733l-8.183,8.172
		l-8.181-8.176l-1.726-1.729L5.3,12.252C6.241,11.693,7.327,11.351,8.495,11.351"/>
	<path fill="#E74B3E" d="M2.203,45.951V17.644c0-0.845,0.174-1.648,0.477-2.39l16.69,16.694L2.776,48.544
		C2.417,47.745,2.203,46.881,2.203,45.951"/>
	<path fill="#E74B3E" d="M55.689,52.244H8.495c-1.65,0-3.148-0.647-4.269-1.69l16.875-16.877l10.992,10.988l10.99-10.988
		l16.875,16.877C58.835,51.597,57.343,52.244,55.689,52.244"/>
	<path fill="#E74B3E" d="M61.981,45.951c0,0.93-0.211,1.794-0.573,2.593L44.813,31.953l16.689-16.695
		c0.301,0.737,0.479,1.541,0.479,2.386V45.951z"/>
</g>
<path id="icon-phone" fill="#E74B3E" d="M53.396,58.838c-26.701,0-48.338-21.646-48.338-48.344c0-5.926,3.698-6.823,9.16-4.659
	c0.587,0.235,2.569,0.766,2.761,2.733c0.2,1.962,1.412,8.481,3.741,13.116c1.108,2.283-5.628,2-4.527,5.561
	c1.768,5.701,13.872,18.903,21.215,20.21c4.851,0.869,2.974-4.283,5.526-3.691c4.332,1.573,7.777,3.019,12.977,3.738
	c1.183,0.395,2.07,1.944,2.344,2.7C60.151,55.368,59.127,58.838,53.396,58.838"/>
<path id="icon-github" fill-rule="evenodd" clip-rule="evenodd" fill="#E74B3E" d="M32.063,1.351
	c-17.273,0-31.28,14.003-31.28,31.284c0,13.817,8.961,25.543,21.394,29.679c1.564,0.285,2.135-0.679,2.135-1.507
	c0-0.742-0.029-2.712-0.042-5.322c-8.703,1.894-10.538-4.192-10.538-4.192c-1.422-3.613-3.475-4.574-3.475-4.574
	c-2.84-1.943,0.214-1.906,0.214-1.906c3.142,0.226,4.792,3.229,4.792,3.229c2.792,4.776,7.322,3.399,9.104,2.598
	c0.284-2.023,1.092-3.4,1.987-4.184c-6.949-0.787-14.249-3.473-14.249-15.458c0-3.415,1.22-6.207,3.219-8.394
	c-0.323-0.793-1.396-3.971,0.308-8.276c0,0,2.625-0.842,8.602,3.207c2.495-0.696,5.171-1.043,7.829-1.055
	c2.659,0.011,5.333,0.358,7.832,1.055c5.973-4.048,8.593-3.207,8.593-3.207c1.709,4.306,0.634,7.483,0.311,8.276
	c2.004,2.187,3.216,4.979,3.216,8.394c0,12.014-7.313,14.659-14.278,15.436c1.119,0.964,2.121,2.874,2.121,5.791
	c0,4.184-0.038,7.559-0.038,8.583c0,0.834,0.562,1.811,2.15,1.503c12.417-4.142,21.374-15.861,21.374-29.675
	C63.345,15.354,49.336,1.351,32.063,1.351"/>
<path id="icon-linkedin" fill="#E74B3E" d="M8.242,7.948v47.701h47.702V7.948H8.242z M23.129,47.422h-6.73V25.796h6.73V47.422z
	 M19.769,22.995c-2.161,0-3.905-1.75-3.905-3.895c0-2.147,1.744-3.901,3.905-3.901c2.15,0,3.893,1.754,3.893,3.901
	C23.662,21.245,21.919,22.995,19.769,22.995z M48.307,47.685h-6.71V37.181c0-2.514-0.062-5.74-3.503-5.74
	c-3.495,0-4.028,2.733-4.028,5.551v10.692h-6.713V26.063h6.441v2.961h0.091c0.897-1.705,3.095-3.499,6.364-3.499
	c6.8,0,8.058,4.479,8.058,10.3V47.685z"/>
<g id="icon-cap">
	<polygon fill="#E74B3E" points="62.702,25.949 31.857,41.247 1.012,25.951 31.857,11.882 	"/>
	<path fill="#E74B3E" d="M46.394,35.38l-14.585,7.235L16.526,35.04c-0.502,0.524-0.78,1.12-0.78,1.791v12.16
		c0,2.535,7.259,4.594,16.211,4.594c8.954,0,16.078-2.059,16.078-4.594v-11.08C48.036,36.962,47.422,36.116,46.394,35.38"/>
	<path fill="#E74B3E" d="M56.198,40.379h0.129l-0.89,6.713c0.069,0.057,0.15,0.102,0.238,0.142l0.759-6.854h0.129l-0.585,6.95
		c0.081,0.021,0.167,0.036,0.258,0.048l0.434-6.998h0.128l-0.249,7.031c0.083,0.005,0.175,0.006,0.263,0.007l0.093-7.038h0.129
		l0.094,7.042c0.09,0,0.177-0.003,0.263-0.005l-0.249-7.037h0.127l0.437,7.019c0.088-0.007,0.178-0.013,0.259-0.024l-0.588-6.994
		h0.129l0.766,6.922c0.09-0.028,0.17-0.066,0.246-0.107l-0.905-6.814h0.129l1.049,6.585c0.234-0.302,0.283-0.792,0.033-1.629
		c-0.343-1.134-0.691-3.479-1.028-4.962c0.506-0.268,0.854-0.792,0.854-1.405c0-0.744-0.513-1.365-1.202-1.539v-7.652l-0.886,0.505
		v7.178c-0.637,0.209-1.101,0.801-1.101,1.508c0,0.552,0.28,1.037,0.705,1.323c-0.356,1.495-0.678,3.872-0.95,4.962
		c-0.177,0.699-0.167,1.167-0.029,1.489L56.198,40.379z"/>
</g>
</svg>
